<svg xmlns="http://www.w3.org/2000/svg" xmlns:xlink="http://www.w3.org/1999/xlink" width="103" height="103" viewBox="0 0 103 103">
  <defs>
    <filter id="Trazado_978624" x="0" y="0" width="103" height="103" filterUnits="userSpaceOnUse">
      <feOffset dy="3" input="SourceAlpha"/>
      <feGaussianBlur stdDeviation="3" result="blur"/>
      <feFlood flood-opacity="0.161"/>
      <feComposite operator="in" in2="blur"/>
      <feComposite in="SourceGraphic"/>
    </filter>
  </defs>
  <g id="Grupo_1227311" data-name="Grupo 1227311" transform="translate(-171 -2866)">
    <g id="Grupo_1176881" data-name="Grupo 1176881">
      <g id="Grupo_1175148" data-name="Grupo 1175148" transform="translate(0 1580)">
        <g id="Grupo_1173798" data-name="Grupo 1173798" transform="translate(-3 -3520)">
          <g id="Grupo_1171925" data-name="Grupo 1171925" transform="translate(-22 -2246)">
            <g id="Grupo_1164524" data-name="Grupo 1164524" transform="translate(205 7058)">
              <g id="Grupo_1144123" data-name="Grupo 1144123">
                <g transform="matrix(1, 0, 0, 1, -9, -6)" filter="url(#Trazado_978624)">
                  <g id="Trazado_978624-2" data-name="Trazado 978624" transform="translate(9 6)" fill="#efecfa">
                    <path d="M 42.5 83.5 C 36.96437835693359 83.5 31.59512901306152 82.41617584228516 26.54141235351562 80.27863311767578 C 21.65934181213379 78.21369171142578 17.27447128295898 75.25723266601562 13.50862312316895 71.49137878417969 C 9.742764472961426 67.72553253173828 6.786305904388428 63.34066009521484 4.721364498138428 58.45858764648438 C 2.583823442459106 53.40486907958984 1.5 48.03562164306641 1.5 42.5 C 1.5 36.96437835693359 2.583823442459106 31.59512901306152 4.721364498138428 26.54141235351562 C 6.786305904388428 21.65934181213379 9.742764472961426 17.27447128295898 13.50862312316895 13.50862312316895 C 17.27447128295898 9.742764472961426 21.65934181213379 6.786305904388428 26.54141235351562 4.721364498138428 C 31.59512901306152 2.583823442459106 36.96437835693359 1.5 42.5 1.5 C 48.03562164306641 1.5 53.40486907958984 2.583823442459106 58.45858764648438 4.721364498138428 C 63.34066009521484 6.786305904388428 67.72553253173828 9.742764472961426 71.49137878417969 13.50862312316895 C 75.25723266601562 17.27447128295898 78.21369171142578 21.65934181213379 80.27863311767578 26.54141235351562 C 82.41617584228516 31.59512901306152 83.5 36.96437835693359 83.5 42.5 C 83.5 48.03562164306641 82.41617584228516 53.40486907958984 80.27863311767578 58.45858764648438 C 78.21369171142578 63.34066009521484 75.25723266601562 67.72553253173828 71.49137878417969 71.49137878417969 C 67.72553253173828 75.25723266601562 63.34066009521484 78.21369171142578 58.45858764648438 80.27863311767578 C 53.40486907958984 82.41617584228516 48.03562164306641 83.5 42.5 83.5 Z" stroke="none"/>
                    <path d="M 42.5 3 C 37.16621398925781 3 31.99356079101562 4.043960571289062 27.125732421875 6.102882385253906 C 22.42246627807617 8.092185974121094 18.19785308837891 10.94070434570312 14.56928253173828 14.56928253173828 C 10.94070434570312 18.19785308837891 8.092185974121094 22.42246627807617 6.102882385253906 27.125732421875 C 4.043960571289062 31.99356079101562 3 37.16621398925781 3 42.5 C 3 47.83378601074219 4.043960571289062 53.00643920898438 6.102882385253906 57.87425231933594 C 8.092185974121094 62.57753372192383 10.94070434570312 66.80213165283203 14.56928253173828 70.43071746826172 C 18.19786834716797 74.05929565429688 22.42246627807617 76.90781402587891 27.125732421875 78.89711761474609 C 31.99356079101562 80.95603942871094 37.16621398925781 82 42.5 82 C 47.83378601074219 82 53.00642395019531 80.95603942871094 57.87425231933594 78.89711761474609 C 62.57753372192383 76.90781402587891 66.80213165283203 74.05929565429688 70.43071746826172 70.43071746826172 C 74.05929565429688 66.80213165283203 76.90781402587891 62.57753372192383 78.89711761474609 57.87425231933594 C 80.95603942871094 53.00642395019531 82 47.83378601074219 82 42.5 C 82 37.16621398925781 80.95603942871094 31.99356079101562 78.89711761474609 27.125732421875 C 76.90781402587891 22.42246627807617 74.05929565429688 18.19786834716797 70.43071746826172 14.56928253173828 C 66.80213165283203 10.94070434570312 62.57753372192383 8.092185974121094 57.87425231933594 6.102882385253906 C 53.00643920898438 4.043960571289062 47.83378601074219 3 42.5 3 M 42.5 0 C 65.97209167480469 0 85 19.02789306640625 85 42.5 C 85 65.97209167480469 65.97209167480469 85 42.5 85 C 19.02789306640625 85 0 65.97209167480469 0 42.5 C 0 19.02789306640625 19.02789306640625 0 42.5 0 Z" stroke="none" fill="#00dcfd"/>
                  </g>
                </g>
              </g>
            </g>
          </g>
        </g>
      </g>
      <g id="desarrollo-de-aplicaciones_6_" data-name="desarrollo-de-aplicaciones (6)" transform="translate(197.897 2889.897)">
        <path id="Trazado_1059568" data-name="Trazado 1059568" d="M37.99,56.538v1.538H18V56.538A1.542,1.542,0,0,1,19.538,55H36.452A1.542,1.542,0,0,1,37.99,56.538Z" transform="translate(-4.161 -12.714)" fill="#dedede"/>
        <path id="Trazado_1059569" data-name="Trazado 1059569" d="M36.146,51l.769,3.075H20L20.769,51Z" transform="translate(-4.623 -11.789)" fill="#969696"/>
        <path id="Trazado_1059570" data-name="Trazado 1059570" d="M4.075,49.151A3.076,3.076,0,0,1,1,46.075V43H48.668v3.075a3.076,3.076,0,0,1-3.075,3.075Z" transform="translate(-0.231 -9.94)" fill="#b5b5b5"/>
        <path id="Trazado_1059571" data-name="Trazado 1059571" d="M48.668,4.075V33.291H1V4.075A3.075,3.075,0,0,1,4.075,1H45.593A3.076,3.076,0,0,1,48.668,4.075Z" transform="translate(-0.231 -0.231)" fill="#f2f2f2"/>
        <path id="Trazado_1059572" data-name="Trazado 1059572" d="M24.708,51.769h11.63L36.146,51H20.769L20,54.075h1.732a3.075,3.075,0,0,1,2.975-2.307Z" transform="translate(-4.623 -11.789)" fill="gray"/>
        <path id="Trazado_1059573" data-name="Trazado 1059573" d="M20.448,55h-.91A1.542,1.542,0,0,0,18,56.538v1.538H37.99V56.538H22.613A2.3,2.3,0,0,1,20.448,55Z" transform="translate(-4.161 -12.714)" fill="#b5b5b5"/>
        <path id="Trazado_1059574" data-name="Trazado 1059574" d="M47.13,43v3.075a1.537,1.537,0,0,1-1.538,1.538H4.075a1.537,1.537,0,0,1-1.538-1.538V43H1v3.075a3.076,3.076,0,0,0,3.075,3.075H45.593a3.076,3.076,0,0,0,3.075-3.075V43Z" transform="translate(-0.231 -9.94)" fill="#a3a3a3"/>
        <path id="Trazado_1059575" data-name="Trazado 1059575" d="M45.593,1H4.075A3.075,3.075,0,0,0,1,4.075V33.291H2.538V4.075A1.537,1.537,0,0,1,4.075,2.538H45.593A1.537,1.537,0,0,1,47.13,4.075V33.291h1.538V4.075A3.076,3.076,0,0,0,45.593,1Z" transform="translate(-0.231 -0.231)" fill="#dedede"/>
        <path id="Trazado_1059576" data-name="Trazado 1059576" d="M46.98,3H7C7,18.3,25.569,30.678,48.517,30.678V4.538A1.537,1.537,0,0,0,46.98,3Z" transform="translate(-1.618 -0.693)" fill="#fff"/>
        <path id="Trazado_1059577" data-name="Trazado 1059577" d="M31,57H52.528v1.538a3.076,3.076,0,0,1-3.075,3.075H34.075A3.076,3.076,0,0,1,31,58.538Z" transform="translate(-7.166 -13.176)" fill="#5acafa"/>
        <path id="Trazado_1059578" data-name="Trazado 1059578" d="M52.528,18.075v.769H47.146s0,2.307-1.538,2.307H37.92c-1.538,0-1.538-2.307-1.538-2.307H31v-.769A3.076,3.076,0,0,1,34.075,15H49.452A3.076,3.076,0,0,1,52.528,18.075Z" transform="translate(-7.166 -3.467)" fill="#5acafa"/>
        <path id="Trazado_1059579" data-name="Trazado 1059579" d="M52.528,20V48.447H31V20h5.382s0,2.307,1.538,2.307h7.688c1.538,0,1.538-2.307,1.538-2.307Z" transform="translate(-7.166 -4.623)" fill="#dedede"/>
        <path id="Trazado_1059580" data-name="Trazado 1059580" d="M39.538,22.307h7.688c1.538,0,1.538-2.307,1.538-2.307H38S38,22.307,39.538,22.307Z" transform="translate(-8.784 -4.623)" fill="#5acafa"/>
        <path id="Trazado_1059581" data-name="Trazado 1059581" d="M49.452,60.075H34.075A3.076,3.076,0,0,1,31,57v1.538a3.076,3.076,0,0,0,3.075,3.075H49.452a3.076,3.076,0,0,0,3.075-3.075V57A3.076,3.076,0,0,1,49.452,60.075Z" transform="translate(-7.166 -13.176)" fill="#1c99eb"/>
        <path id="Trazado_1059582" data-name="Trazado 1059582" d="M48.07,20s0,2.307-1.538,2.307H38.844c-1.538,0-1.538-2.307-1.538-2.307H35c0,12.749,8.253,23.065,18.452,23.065V20Z" transform="translate(-8.091 -4.623)" fill="#f2f2f2"/>
        <path id="Trazado_1059583" data-name="Trazado 1059583" d="M34.075,16.538H49.452a3.067,3.067,0,0,1,2.967,2.307h.108v-.769A3.076,3.076,0,0,0,49.452,15H34.075A3.076,3.076,0,0,0,31,18.075v.769h.108A3.067,3.067,0,0,1,34.075,16.538Z" transform="translate(-7.166 -3.467)" fill="#1c99eb"/>
        <circle id="Elipse_12862" data-name="Elipse 12862" cx="7.5" cy="7.5" r="7.5" transform="translate(27.206 22.206)" fill="#0af"/>
        <path id="Trazado_1059584" data-name="Trazado 1059584" d="M38,38.382l3.844,3.844,6.92-6.92L46.457,33l-4.613,4.613-1.538-1.538Z" transform="translate(-8.784 -7.628)" fill="#f2f2f2"/>
        <path id="Trazado_1059585" data-name="Trazado 1059585" d="M21.914,14.995V11.92H20.2a6.88,6.88,0,0,0-.889-2.141l1.214-1.214L18.35,6.39,17.136,7.6a6.88,6.88,0,0,0-2.141-.889V5H11.92V6.715A6.88,6.88,0,0,0,9.778,7.6L8.564,6.39,6.39,8.564,7.6,9.778a6.88,6.88,0,0,0-.889,2.141H5v3.075H6.715A6.88,6.88,0,0,0,7.6,17.136L6.39,18.35l2.174,2.174L9.778,19.31a6.88,6.88,0,0,0,2.141.889v1.715h3.075V20.2a6.88,6.88,0,0,0,2.141-.889l1.214,1.214,2.174-2.174L19.31,17.136a6.88,6.88,0,0,0,.889-2.141Z" transform="translate(-1.156 -1.156)" fill="#939393"/>
        <circle id="Elipse_12863" data-name="Elipse 12863" cx="3" cy="3" r="3" transform="translate(9.206 9.206)" fill="#fff"/>
        <ellipse id="Elipse_12864" data-name="Elipse 12864" cx="3.5" cy="3" rx="3.5" ry="3" transform="translate(17.206 27.206)" fill="none"/>
        <path id="Trazado_1059586" data-name="Trazado 1059586" d="M21.382,36.457a3.075,3.075,0,0,1,6.151,0V30.269a6.829,6.829,0,0,0-1.538-.554V28H22.92v1.715a6.88,6.88,0,0,0-2.141.889L19.564,29.39,17.39,31.564,18.6,32.778a6.88,6.88,0,0,0-.889,2.141H16v3.075h1.715a6.829,6.829,0,0,0,.554,1.538h6.188a3.075,3.075,0,0,1-3.075-3.075Z" transform="translate(-3.699 -6.472)" fill="#8e8d92"/>
        <path id="Trazado_1059587" data-name="Trazado 1059587" d="M27,42.075h3.075V39A3.076,3.076,0,0,1,27,42.075Z" transform="translate(-6.241 -9.015)" fill="#8e8d92"/>
        <path id="Trazado_1059588" data-name="Trazado 1059588" d="M42.969,40.13l-1.817,1.817L37.308,38.1l1.23-1.226a7.543,7.543,0,0,1-1.165-5.084,7.685,7.685,0,1,0,12.947,6.471,7.625,7.625,0,0,1-7.348,1.868Z" transform="translate(-8.092 -7.349)" fill="#007aff"/>
        <path id="Trazado_1059589" data-name="Trazado 1059589" d="M41.844,43.476l1.817-1.817a7.693,7.693,0,0,1-4.431-3.254L38,39.631Z" transform="translate(-8.784 -8.878)" fill="#dedede"/>
        <path id="Trazado_1059590" data-name="Trazado 1059590" d="M27,56h3.075v.769H27Z" transform="translate(-6.241 -12.945)" fill="#b5b5b5"/>
        <g id="Grupo_1227459" data-name="Grupo 1227459" transform="translate(20.759 33.822)">
          <path id="Trazado_1059591" data-name="Trazado 1059591" d="M27,52h3.075v2.307H27Z" transform="translate(-27 -45.842)" fill="#706f73"/>
          <path id="Trazado_1059592" data-name="Trazado 1059592" d="M27,52h.949a3.122,3.122,0,0,1,2.386,1.538H27Z" transform="translate(-27 -45.842)" fill="#706f73"/>
          <path id="Trazado_1059593" data-name="Trazado 1059593" d="M27,43.991h3.075v3.851H27Z" transform="translate(-27 -43.991)" fill="#706f73"/>
        </g>
        <path id="Trazado_1059594" data-name="Trazado 1059594" d="M27,50h3.075v1.538H27Z" transform="translate(-6.241 -11.558)" fill="#454547"/>
        <path id="Trazado_1059595" data-name="Trazado 1059595" d="M27,42.989v.769h2.307l.8-.8" transform="translate(-6.241 -9.929)" fill="#666569"/>
        <path id="Trazado_1059596" data-name="Trazado 1059596" d="M27,54h3.075v1.538H27Z" transform="translate(-6.241 -12.483)" fill="#454547"/>
        <path id="Trazado_1059597" data-name="Trazado 1059597" d="M31.009,15h2.317l-3.407,3.408-.724.724V16.788Z" transform="translate(-6.749 -3.467)" fill="#e8e6e6"/>
        <path id="Trazado_1059598" data-name="Trazado 1059598" d="M27,57h3.075v1.538H27Z" transform="translate(-6.241 -13.176)" fill="gray"/>
        <path id="Trazado_1059599" data-name="Trazado 1059599" d="M27,49h3.075v.777H27Z" transform="translate(-6.241 -11.327)" fill="#7c7b7b"/>
        <path id="Trazado_1059600" data-name="Trazado 1059600" d="M28.538,27.244a6.113,6.113,0,0,1,1.538.667V16.851A4.251,4.251,0,0,1,30.5,15h-.426C28.377,15,27,16.658,27,18.7v6.477h1.538Z" transform="translate(-6.241 -3.467)" fill="#e8e6e6"/>
        <path id="Trazado_1059601" data-name="Trazado 1059601" d="M30.075,38.075A3.076,3.076,0,0,0,27,35v6.151A3.076,3.076,0,0,0,30.075,38.075Z" transform="translate(-6.241 -8.091)" fill="#cfcfcf"/>
        <path id="Trazado_1059602" data-name="Trazado 1059602" d="M28.538,29.715V28H27v5.382a3.076,3.076,0,0,1,3.075,3.075V30.269A6.829,6.829,0,0,0,28.538,29.715Z" transform="translate(-6.241 -6.472)" fill="#706f73"/>
        <path id="Trazado_1059603" data-name="Trazado 1059603" d="M30.075,39A3.076,3.076,0,0,1,27,42.075h3.075Z" transform="translate(-6.241 -9.015)" fill="#666569"/>
        <path id="Trazado_1059604" data-name="Trazado 1059604" d="M1.538,3.844A2.306,2.306,0,0,1,3.844,1.538H5.382V0H3.844A3.849,3.849,0,0,0,0,3.844V36.136A3.849,3.849,0,0,0,3.844,39.98H15.161l-.408,1.635a2.306,2.306,0,0,0-1.682,2.21v1.538a.769.769,0,0,0,.769.769h6.92V44.593H14.608v-.769a.769.769,0,0,1,.769-.769h5.382V41.517h-4.4l.384-1.538h4.013V38.442H3.844a2.306,2.306,0,0,1-2.307-2.307V33.829H20.759V32.291H1.538Z"/>
        <path id="Trazado_1059605" data-name="Trazado 1059605" d="M9,0h1.538V1.538H9Z" transform="translate(-2.08)"/>
        <path id="Trazado_1059606" data-name="Trazado 1059606" d="M48.367,0H13V1.538H48.367a2.306,2.306,0,0,1,2.307,2.307V36.136A2.306,2.306,0,0,1,49.136,38.3V14.608a3.849,3.849,0,0,0-3.844-3.844H29.914a3.849,3.849,0,0,0-3.844,3.844V45.362a3.849,3.849,0,0,0,3.844,3.844H45.291a3.849,3.849,0,0,0,3.844-3.844V39.9a3.851,3.851,0,0,0,3.075-3.767V3.844A3.849,3.849,0,0,0,48.367,0ZM29.914,12.3H45.291A2.306,2.306,0,0,1,47.6,14.608H42.985a.769.769,0,0,0-.769.769c0,.015-.043,1.538-.769,1.538H33.759c-.726,0-.769-1.525-.769-1.538a.769.769,0,0,0-.769-.769H27.608A2.306,2.306,0,0,1,29.914,12.3ZM47.6,16.146V43.055H27.608V16.146h3.916c.191,1.052.794,2.307,2.235,2.307h7.688c1.441,0,2.044-1.255,2.235-2.307ZM45.291,47.668H29.914a2.306,2.306,0,0,1-2.307-2.307v-.769H47.6v.769A2.306,2.306,0,0,1,45.291,47.668Z" transform="translate(-3.005)"/>
        <path id="Trazado_1059607" data-name="Trazado 1059607" d="M4,46H5.538v1.538H4Z" transform="translate(-0.925 -10.633)"/>
        <path id="Trazado_1059608" data-name="Trazado 1059608" d="M8,46h4.613v1.538H8Z" transform="translate(-1.849 -10.633)"/>
        <path id="Trazado_1059609" data-name="Trazado 1059609" d="M41,18h6.151v1.538H41Z" transform="translate(-9.478 -4.161)"/>
        <path id="Trazado_1059610" data-name="Trazado 1059610" d="M41,59h6.151v1.538H41Z" transform="translate(-9.478 -13.638)"/>
        <path id="Trazado_1059611" data-name="Trazado 1059611" d="M5.615,8.877l.8.8A7.68,7.68,0,0,0,5.9,10.92H4.769A.769.769,0,0,0,4,11.688v3.075a.769.769,0,0,0,.769.769H5.9a7.683,7.683,0,0,0,.517,1.245l-.8.8a.769.769,0,0,0,0,1.087L7.79,20.838a.769.769,0,0,0,1.087,0l.8-.8a7.68,7.68,0,0,0,1.245.516v1.127a.769.769,0,0,0,.769.769h3.075a.769.769,0,0,0,.769-.769V20.556a7.683,7.683,0,0,0,1.245-.517l.8.8a.769.769,0,0,0,1.087,0l2.175-2.175a.769.769,0,0,0,0-1.087l-.8-.8a7.68,7.68,0,0,0,.516-1.245h1.127a.769.769,0,0,0,.769-.769V11.688a.769.769,0,0,0-.769-.769H20.556a7.683,7.683,0,0,0-.517-1.245l.8-.8a.769.769,0,0,0,0-1.087L18.663,5.615a.769.769,0,0,0-1.087,0l-.8.8A7.683,7.683,0,0,0,15.533,5.9V4.769A.769.769,0,0,0,14.764,4H11.688a.769.769,0,0,0-.769.769V5.9a7.683,7.683,0,0,0-1.245.517l-.8-.8a.769.769,0,0,0-1.087,0L5.615,7.79a.769.769,0,0,0,0,1.087Zm1.615,2.982a6.081,6.081,0,0,1,.79-1.9A.769.769,0,0,0,7.912,9l-.67-.67L8.333,7.246l.67.67a.769.769,0,0,0,.954.107,6.081,6.081,0,0,1,1.9-.79.77.77,0,0,0,.6-.75V5.538h1.538v.946a.77.77,0,0,0,.6.75,6.081,6.081,0,0,1,1.9.79.769.769,0,0,0,.954-.107l.67-.67,1.087,1.087-.67.67a.769.769,0,0,0-.107.954,6.081,6.081,0,0,1,.79,1.9.77.77,0,0,0,.75.6h.946v1.538h-.946a.77.77,0,0,0-.75.6,6.081,6.081,0,0,1-.79,1.9.769.769,0,0,0,.107.954l.67.67-1.087,1.087-.67-.67a.769.769,0,0,0-.954-.107,6.081,6.081,0,0,1-1.9.79.77.77,0,0,0-.6.75v.946H12.457v-.946a.77.77,0,0,0-.6-.75,6.081,6.081,0,0,1-1.9-.79A.769.769,0,0,0,9,18.536l-.67.67L7.246,18.119l.67-.67a.769.769,0,0,0,.107-.954,6.081,6.081,0,0,1-.79-1.9.77.77,0,0,0-.75-.6H5.538V12.457h.946a.77.77,0,0,0,.75-.6Z" transform="translate(-0.925 -0.925)"/>
        <path id="Trazado_1059612" data-name="Trazado 1059612" d="M14.844,18.688A3.844,3.844,0,1,0,11,14.844,3.845,3.845,0,0,0,14.844,18.688Zm0-6.151a2.307,2.307,0,1,1-2.307,2.307A2.306,2.306,0,0,1,14.844,12.538Z" transform="translate(-2.543 -2.543)"/>
        <path id="Trazado_1059613" data-name="Trazado 1059613" d="M21.92,27.769V28.9a7.683,7.683,0,0,0-1.245.517l-.8-.8a.769.769,0,0,0-1.087,0L16.615,30.79a.769.769,0,0,0,0,1.087l.8.8A7.68,7.68,0,0,0,16.9,33.92H15.769a.769.769,0,0,0-.769.769v3.075h1.538V35.457h.946a.77.77,0,0,0,.75-.6,6.081,6.081,0,0,1,.79-1.9A.769.769,0,0,0,18.916,32l-.67-.67,1.087-1.087.67.67a.769.769,0,0,0,.954.107,6.081,6.081,0,0,1,1.9-.79.77.77,0,0,0,.6-.75v-.946h.769V27H22.688a.769.769,0,0,0-.769.769Z" transform="translate(-3.467 -6.241)"/>
        <path id="Trazado_1059614" data-name="Trazado 1059614" d="M25.844,35.538V34A3.849,3.849,0,0,0,22,37.844h1.538A2.306,2.306,0,0,1,25.844,35.538Z" transform="translate(-5.086 -7.859)"/>
        <path id="Trazado_1059615" data-name="Trazado 1059615" d="M34,36.457A8.457,8.457,0,1,0,42.457,28,8.457,8.457,0,0,0,34,36.457Zm15.377,0a6.92,6.92,0,1,1-6.92-6.92A6.919,6.919,0,0,1,49.377,36.457Z" transform="translate(-7.859 -6.472)"/>
        <path id="Trazado_1059616" data-name="Trazado 1059616" d="M40.619,35.3a.769.769,0,0,0-1.087,0l-2.307,2.307a.769.769,0,0,0,0,1.087l3.844,3.844a.769.769,0,0,0,1.087,0l6.92-6.92a.769.769,0,0,0,0-1.087L46.77,32.225a.769.769,0,0,0-1.087,0l-4.069,4.069Zm5.607-1.445,1.219,1.219-5.832,5.832-2.757-2.757,1.219-1.219.994.994a.769.769,0,0,0,1.087,0Z" transform="translate(-8.553 -7.397)"/>
        <path id="Trazado_1059617" data-name="Trazado 1059617" d="M57,4h1.538V5.538H57Z" transform="translate(-13.176 -0.925)"/>
        <path id="Trazado_1059618" data-name="Trazado 1059618" d="M42,4h9.995V5.538H42Z" transform="translate(-9.709 -0.925)"/>
      </g>
    </g>
  </g>
</svg>
